HIERARCHY
ROOT Hips
{
  OFFSET 0 0 0
  CHANNELS 6 Xposition Yposition Zposition Zrotation Yrotation Xrotation
  JOINT LeftThigh
  {
    OFFSET 8.409438 0 -5.917753
    CHANNELS 3 Zrotation Yrotation Xrotation
    JOINT LeftLeg
    {
      OFFSET 0 0 -42.358652
      CHANNELS 3 Zrotation Yrotation Xrotation
      JOINT LeftFoot
      {
        OFFSET 0 0 -39.357303
        CHANNELS 3 Zrotation Yrotation Xrotation
      }
    }
  }
  JOINT RightThigh
  {
    OFFSET -8.409438 0 -5.917753
    CHANNELS 3 Zrotation Yrotation Xrotation
    JOINT RightLeg
    {
      OFFSET 0 0 -42.358652
      CHANNELS 3 Zrotation Yrotation Xrotation
      JOINT RightFoot
      {
        OFFSET 0 0 -39.357303
        CHANNELS 3 Zrotation Yrotation Xrotation
      }
    }
  }
  JOINT SpineLow
  {
    OFFSET 0 0 4.719101
    CHANNELS 3 Zrotation Yrotation Xrotation
    JOINT SpineMid
    {
      OFFSET 0 0 12.899191
      CHANNELS 3 Zrotation Yrotation Xrotation
      JOINT Chest
      {
        OFFSET 0 0 12.899191
        CHANNELS 3 Zrotation Yrotation Xrotation
        JOINT LeftShoulder
        {
          OFFSET 7.550562 1.41573 9.438202
          CHANNELS 3 Zrotation Yrotation Xrotation
          JOINT LeftArm
          {
            OFFSET 9.155056 0 4.247191
            CHANNELS 3 Zrotation Yrotation Xrotation
            JOINT LeftForearm
            {
              OFFSET 0 0 25.771955
              CHANNELS 3 Zrotation Yrotation Xrotation
              JOINT LeftHand
              {
                OFFSET 0 0 25.197169
                CHANNELS 3 Zrotation Yrotation Xrotation
              }
            }
          }
        }
        JOINT RightShoulder
        {
          OFFSET -7.550562 1.41573 9.438202
          CHANNELS 3 Zrotation Yrotation Xrotation
          JOINT RightArm
          {
            OFFSET -9.155056 0 4.247191
            CHANNELS 3 Zrotation Yrotation Xrotation
            JOINT RightForearm
            {
              OFFSET 0 0 -25.771955
              CHANNELS 3 Zrotation Yrotation Xrotation
              JOINT RightHand
              {
                OFFSET 0 0 -25.197169
                CHANNELS 3 Zrotation Yrotation Xrotation
              }
            }
          }
        }
        JOINT Neck
        {
          OFFSET 0 0 15.101124
          CHANNELS 3 Zrotation Yrotation Xrotation
          JOINT Head
          {
            OFFSET 0 0 11.325843
            CHANNELS 3 Zrotation Yrotation Xrotation
            End Site
            {
              OFFSET 0 0 14.157303
            }
          }
        }
      }
    }
  }
}
MOTION
Frames: 17
Frame Time: 0.0
0.0  101.685394  0.0  -113.201771  53.170721  166.097958  46.233738  -38.11606  -50.043095  -36.919104  25.87501  16.838097  -2.612848  -3.829995  -1.117499  -45.508836  32.104331  -46.291262  11.957622  3.625512  33.177389  -1.239842  -19.99258  -20.813476  -2.595215  -1.165164  2.76686  -7.220606  -2.879225  7.682462  -7.220607  -2.879225  7.682463  -1.396504  27.295511  14.504876  141.061948  40.126005  -177.235075  -43.954257  -15.202992  106.264004  32.113582  18.719604  38.191205  -5.538088  -0.571512  21.47  69.009841  38.926373  40.218579  -18.43061  14.383433  -151.62111  49.059763  34.93314  20.086571  -10.071887  -15.751141  10.857921  -7.222002  -11.998811  7.828307  
0.0  101.685394  0.0  -113.816724  53.26154  165.652449  47.337075  -37.31063  -50.66952  -38.244776  26.174688  16.453795  -2.639196  -3.675106  -1.413518  -45.689954  31.399039  -47.445025  11.904844  5.386208  36.564589  1.064049  -19.375837  -21.329031  -2.76932  -1.134553  2.760018  -7.691985  -2.776178  7.666939  -7.691985  -2.776178  7.66694  -1.584571  27.834595  14.250685  138.557503  41.558212  -176.898069  -43.752414  -17.579622  105.563847  29.18979  16.949183  37.667516  -5.650893  -0.618469  21.312965  68.230027  38.979979  39.444773  -18.372741  14.376729  -152.171029  49.367359  34.611315  20.003366  -9.840854  -15.71346  10.818298  -7.05174  -11.965635  7.805651  
0.0  101.685394  0.0  -115.366568  53.332243  164.314685  48.189757  -36.674812  -51.501452  -40.162921  27.148465  15.631749  -2.271489  -3.481257  -1.524052  -44.026675  32.438026  -47.75933  11.099007  6.453442  40.146479  2.747627  -18.573789  -21.969515  -3.043874  -1.111057  2.750357  -8.438393  -2.681225  7.647818  -8.438393  -2.681225  7.647818  -1.84424  28.500129  14.093553  136.355822  43.165212  -176.713594  -43.308268  -19.426349  104.667252  26.588847  15.213802  37.164204  -5.813464  -0.511376  21.250507  67.58929  38.825082  38.664643  -17.86761  14.331947  -152.534304  49.875325  34.481371  20.033097  -9.540702  -15.570102  10.767735  -6.832823  -11.851772  7.779055  
0.0  101.685394  0.0  -117.267019  53.095095  162.563962  48.761296  -36.272008  -52.551303  -42.028404  28.307474  14.980031  -1.99622  -3.278662  -1.663021  -40.993917  34.820009  -47.135271  10.374001  5.841275  43.780727  2.946136  -18.894119  -24.187971  -3.36522  -1.136937  2.751793  -9.319031  -2.713863  7.667122  -9.319032  -2.713863  7.667122  -2.072474  29.122107  14.065353  134.44576  44.797966  -176.501916  -42.623705  -20.77881  103.595004  24.266776  13.579198  36.66201  -5.922696  -0.250094  21.231675  66.94678  38.420373  37.854459  -17.208327  14.314888  -152.701084  50.519494  34.328946  20.276448  -9.21994  -15.365944  10.722007  -6.599806  -11.692057  7.757794  
0.0  101.685394  0.0  -118.932018  53.005481  160.713368  48.915136  -36.016001  -53.076469  -43.050174  29.239668  14.939595  -1.946747  -3.15082  -1.805892  -37.252502  37.585372  -45.517786  9.706109  3.87995  46.760402  1.559154  -17.992206  -24.966369  -3.688192  -1.128249  2.783783  -10.200894  -2.647293  7.764624  -10.200894  -2.647293  7.764624  -2.099856  29.625896  14.102735  132.71164  46.355045  -176.276991  -41.716783  -21.774026  102.352538  22.216943  11.987364  36.302067  -6.126827  0.098297  21.298423  66.538582  37.887048  37.161937  -16.701141  14.379131  -152.748051  51.062458  34.163105  20.460718  -8.847341  -15.160003  10.746483  -6.326287  -11.531192  7.789956  
0.0  101.685394  0.0  -120.105451  52.76443  159.737888  49.095213  -35.63385  -53.830154  -43.295332  29.840883  15.385041  -3.259145  -2.963934  -2.088844  -34.938695  39.462723  -44.444789  9.751368  0.492167  48.662699  -0.278642  -17.008293  -25.690121  -4.000593  -1.166026  2.729742  -11.056656  -2.72193  7.634691  -11.056655  -2.72193  7.63469  -2.025627  30.15689  14.02857  131.05433  47.646988  -176.238289  -40.817188  -22.796246  100.975157  20.468324  10.333388  36.223687  -5.887326  0.48908  21.354122  65.937276  37.09667  36.680087  -16.442675  14.421687  -152.662821  51.441073  33.857442  20.639934  -8.461938  -14.927426  10.925904  -6.039951  -11.352343  7.938284  
0.0  101.685394  0.0  -120.92302  52.281272  159.282377  49.001311  -35.35227  -54.581807  -42.950351  30.014198  16.120437  -3.787831  -2.958337  -2.250677  -33.917116  40.162026  -43.877394  10.521861  -3.298943  49.731344  -2.416989  -16.229961  -26.186778  -4.334825  -1.257174  2.639731  -11.977244  -2.946896  7.418393  -11.977244  -2.946896  7.418393  -1.589583  30.5988  14.230951  129.523156  48.86573  -176.00752  -40.005393  -24.168406  99.513216  19.012874  8.440776  36.561072  -5.809944  1.019877  21.682222  65.772949  36.449966  36.384723  -16.290799  14.400398  -152.422095  51.749952  33.478389  20.66642  -8.019256  -14.651396  11.203787  -5.709552  -11.140975  8.162036  
0.0  101.685394  0.0  -121.011544  51.998002  159.380213  48.793902  -35.132533  -54.842844  -42.42439  29.878974  16.926581  -4.437285  -2.993256  -2.385795  -33.353848  40.469115  -43.788385  11.444042  -6.913299  50.337381  -5.176071  -15.804066  -26.245913  -4.607152  -1.328236  2.573862  -12.727046  -3.121598  7.263696  -12.727046  -3.121598  7.263696  -1.156031  30.894813  14.264264  128.044425  49.960305  -175.848051  -39.257982  -25.93233  98.000266  17.734494  6.343214  37.369775  -5.610188  1.411342  21.803395  65.694359  35.714632  36.322998  -16.28565  14.22294  -151.903288  51.953403  33.111639  20.493098  -7.583255  -14.410652  11.43349  -5.384506  -10.955192  8.34861  
0.0  101.685394  0.0  -120.223584  52.150147  160.126321  48.925006  -34.839312  -54.626718  -42.153738  29.559977  17.514281  -4.651734  -3.070551  -2.487331  -32.900423  40.607827  -44.24186  11.294741  -9.324283  50.83638  -7.002664  -15.50825  -25.782906  -4.785724  -1.349478  2.49983  -13.214279  -3.174119  7.073901  -13.214279  -3.174119  7.0739  -1.058323  31.207045  14.037985  126.687201  50.879461  -176.049669  -38.696819  -27.894646  96.522626  16.451021  4.216125  38.424767  -5.685113  1.807686  22.043413  65.768155  35.044946  36.363694  -16.28827  14.077892  -151.413174  52.049015  32.713861  20.378819  -7.232599  -14.161205  11.696478  -5.122639  -10.764648  8.557872  
0.0  101.685394  0.0  -119.045155  52.51559  161.112997  49.070682  -34.756726  -54.127055  -42.129126  29.307358  17.75376  -4.50021  -3.12672  -2.55148  -32.841656  40.576371  -45.351472  10.126263  -10.203085  51.793572  -7.290012  -15.68855  -25.065742  -4.921391  -1.341771  2.417023  -13.580499  -3.155399  6.852595  -13.580499  -3.155399  6.852595  -1.195819  31.473522  13.851714  125.589774  51.703196  -176.347224  -38.299787  -29.714842  95.217929  15.167013  2.190162  39.379191  -5.78879  2.152715  22.28537  65.876126  34.350923  36.518588  -16.225184  13.829669  -150.835069  52.089596  32.306797  20.408754  -6.980804  -13.892129  11.977916  -4.934736  -10.561275  8.778752  
0.0  101.685394  0.0  -116.724962  53.07214  163.244512  49.793427  -34.819343  -53.735003  -41.758841  29.066122  17.967249  -4.423799  -3.174629  -2.554986  -32.601227  40.100847  -47.201107  7.921207  -9.355078  53.578951  -6.008222  -16.275525  -24.368334  -4.964415  -1.347436  2.336052  -13.695302  -3.183046  6.635244  -13.695303  -3.183046  6.635243  -1.486149  31.52499  13.540948  125.097877  52.377775  -176.188054  -37.912713  -31.067751  94.187898  13.951525  0.328167  39.934158  -5.990388  2.552419  22.35353  65.955074  33.656868  36.630464  -15.914925  13.581311  -150.338278  52.298451  31.889961  20.611892  -6.674843  -13.601464  12.084033  -4.710974  -10.338332  8.870145  
0.0  101.685394  0.0  -113.71116  53.629707  166.047766  50.682239  -35.082071  -53.392479  -40.913911  28.747931  18.296094  -4.611704  -3.261161  -2.620831  -32.195013  39.072894  -49.312674  4.97039  -6.802787  55.792556  -3.510442  -16.996138  -23.553764  -4.965449  -1.362473  2.28366  -13.697602  -3.234676  6.49591  -13.697601  -3.234676  6.495909  -1.696178  31.402987  13.062619  124.840836  52.840794  -175.809101  -37.505012  -31.884566  93.479005  12.821631  -1.338237  40.018451  -6.16552  2.931818  22.199985  68.021615  33.802431  36.519894  -15.871902  11.964235  -148.199778  52.669672  31.589765  20.933942  -6.299926  -13.341084  11.984408  -4.439442  -10.134351  8.808581  
0.0  101.685394  0.0  -110.049211  54.178963  169.31186  51.52174  -35.657748  -52.871029  -40.013408  28.543804  18.576629  -5.075275  -3.310946  -2.758083  -31.831342  37.324015  -51.550644  2.378482  -3.294796  57.973055  -0.68539  -17.72917  -22.524856  -4.929958  -1.361027  2.237473  -13.598489  -3.243855  6.368347  -13.598489  -3.243855  6.368347  -1.800367  31.191795  12.829245  124.856342  53.249602  -175.225478  -37.151705  -32.265974  93.036329  11.793717  -2.901224  39.800219  -6.366869  3.334589  22.137376  67.956514  33.041873  36.295317  -15.271582  11.687817  -147.805561  53.196787  31.386127  21.238386  -5.926319  -13.091842  11.85284  -4.169102  -9.938553  8.72256  
0.0  101.685394  0.0  -105.988811  54.708843  172.77063  52.002293  -36.369765  -51.921248  -39.177011  28.209565  18.721999  -5.268699  -3.221135  -2.703212  -31.613959  34.946553  -53.81572  0.963594  0.105229  59.926273  1.538219  -18.371741  -21.288984  -4.902716  -1.337129  2.198839  -13.519802  -3.189542  6.256961  -13.519802  -3.189542  6.256961  -1.721549  31.002606  12.513352  124.75542  53.422915  -174.899309  -36.910452  -32.397925  92.756429  10.892896  -4.435348  39.477306  -6.429881  3.761164  22.102702  67.828354  32.267225  35.958247  -14.714424  11.434836  -147.365611  53.775601  31.202076  21.360055  -5.495335  -12.819626  11.732678  -3.855951  -9.72469  8.64624  
0.0  101.685394  0.0  -101.77389  55.172329  176.452474  52.293691  -36.786152  -50.721033  -38.789909  27.759205  18.740622  -4.656061  -3.129664  -2.666117  -31.675529  31.947196  -56.15464  0.960224  2.891464  61.693857  2.953083  -18.890819  -19.927194  -4.896693  -1.322694  2.137082  -13.499191  -3.163553  6.085571  -13.499191  -3.163552  6.085571  -1.506512  30.944847  12.303716  124.565047  53.595194  -174.742732  -36.779212  -32.529332  92.56466  10.146698  -6.067576  39.197884  -6.437757  4.33903  22.123585  67.495617  31.552101  35.507491  -14.176664  11.294343  -147.027171  54.375398  30.966042  21.275992  -5.027142  -12.464166  11.600277  -3.516848  -9.447731  8.562262  
0.0  101.685394  0.0  -97.334922  55.385353  179.922566  52.574868  -37.357724  -49.244138  -38.896558  27.348889  18.665689  -3.370619  -3.094437  -2.745588  -31.553027  28.595427  -57.817835  2.096463  4.931989  63.416688  3.85036  -19.102549  -18.617007  -4.894939  -1.306103  2.151138  -13.493241  -3.115759  6.120275  -13.493241  -3.115759  6.120275  -1.211072  30.897888  12.237575  124.242201  53.845015  -174.745814  -36.797434  -32.892149  92.425735  9.489541  -7.866346  39.130495  -6.434786  4.887076  22.018116  67.15214  30.92143  35.022074  -13.412694  11.380624  -146.993638  55.286426  30.585048  21.510673  -4.538373  -12.08725  11.409181  -3.163637  -9.154035  8.434449  
0.0  101.685394  0.0  -93.197257  55.824287  -176.714396  52.385765  -37.55358  -47.38263  -38.86753  26.917259  18.73437  -2.537079  -3.082472  -2.775367  -31.595202  25.3422  -59.543434  3.66302  6.456836  65.314212  4.803424  -18.861836  -17.540997  -4.932748  -1.248936  2.145637  -13.590324  -2.957966  6.094826  -13.590325  -2.957966  6.094826  -0.947848  30.772071  12.106495  123.874626  54.025301  -174.859417  -36.943461  -33.502507  92.336546  8.889666  -9.804749  39.28071  -6.486543  5.408886  21.802924  66.741922  30.320324  34.503363  -12.733143  11.286531  -146.66102  56.05522  30.299069  21.33505  -4.056889  -11.697545  11.122111  -2.81753  -8.850511  8.234166  
